<?xml version="1.0" standalone="no"?>
<!DOCTYPE svg PUBLIC "-//W3C//DTD SVG 20010904//EN"
 "http://www.w3.org/TR/2001/REC-SVG-20010904/DTD/svg10.dtd">
<svg version="1.0" xmlns="http://www.w3.org/2000/svg"
 width="260.000000pt" height="260.000000pt" viewBox="0 0 260.000000 260.000000"
 preserveAspectRatio="xMidYMid meet">
<metadata>
Created by potrace 1.11, written by Peter Selinger 2001-2013
</metadata>
<g transform="translate(0.000000,260.000000) scale(0.100000,-0.100000)"
fill="#000000" stroke="none">
<path d="M1525 2318 c-270 -166 -503 -346 -627 -483 -15 -16 -45 -50 -68 -75
-98 -108 -190 -266 -231 -400 -18 -59 -23 -99 -24 -185 0 -103 8 -148 42 -235
4 -8 7 -17 7 -20 1 -3 5 -11 9 -17 5 -7 5 -18 1 -25 -4 -6 -3 -8 4 -4 6 3 16
-7 24 -24 7 -16 16 -30 20 -30 5 0 8 -5 8 -11 0 -12 71 -101 105 -133 11 -10
19 -22 17 -27 -1 -5 2 -9 8 -9 5 0 25 -16 44 -35 20 -19 38 -35 42 -35 4 0 14
-8 23 -18 9 -10 28 -25 42 -34 l26 -17 -12 64 c-7 41 -8 70 -2 81 6 11 6 15 0
11 -6 -4 -10 4 -10 18 0 14 3 22 8 19 5 -3 9 -1 9 5 0 5 -6 12 -12 14 -10 4
-9 8 2 16 8 6 10 11 4 11 -7 0 -8 18 -1 60 5 33 13 60 17 60 5 0 6 10 2 22 -4
16 -2 19 8 13 9 -5 11 -4 6 4 -10 16 3 51 19 51 8 0 17 4 20 10 3 5 0 7 -9 4
-11 -4 -13 0 -9 15 3 12 10 24 16 28 5 3 7 1 3 -5 -3 -6 -2 -13 3 -17 6 -3 8
6 5 21 -4 22 -2 25 12 20 14 -5 15 -4 4 9 -11 14 -7 19 12 16 4 0 5 6 2 14 -3
8 3 19 15 27 12 7 21 18 21 24 0 15 35 46 43 37 4 -3 7 1 7 9 0 16 65 75 107
96 27 15 63 16 63 2 0 -5 5 -10 11 -10 16 0 41 -29 34 -39 -3 -5 0 -13 6 -17
8 -4 9 -3 5 4 -17 28 11 9 51 -35 24 -26 42 -52 39 -60 -3 -7 0 -12 6 -10 26
5 96 -147 118 -257 17 -85 1 -249 -31 -308 -17 -31 -3 -32 49 -5 34 18 52 23
59 16 7 -7 13 -7 18 2 5 8 4 10 -3 5 -7 -4 -12 -4 -12 1 1 9 67 53 81 53 5 0
9 5 9 10 0 6 7 10 16 10 8 0 12 5 9 10 -3 6 -2 10 4 10 5 0 22 13 37 29 15 17
32 27 37 24 6 -3 7 -1 3 6 -4 7 2 15 16 20 13 6 17 10 8 11 -12 0 -11 4 3 15
11 7 26 11 35 8 14 -4 15 -3 2 5 -8 6 -18 8 -24 5 -5 -4 -1 5 10 19 10 14 22
24 26 21 4 -2 5 3 2 12 -4 8 -2 21 4 28 5 6 12 25 16 40 4 15 10 26 14 23 7
-4 11 23 13 86 1 17 6 25 12 21 6 -4 7 -1 2 7 -12 19 -13 82 -2 98 6 8 5 12
-3 12 -9 0 -11 9 -6 30 3 17 2 30 -3 30 -5 0 -12 19 -16 43 -9 50 -8 42 -24
90 -7 21 -10 44 -7 52 3 10 0 12 -12 8 -9 -3 -14 -3 -10 2 4 4 3 14 -3 22 -6
7 -9 13 -5 13 9 0 -59 122 -122 219 l-36 55 -21 -57 c-28 -76 -37 -84 -69 -63
-23 14 -32 30 -23 39 1 1 -8 13 -21 27 -12 13 -20 30 -18 37 3 7 0 12 -6 10
-5 -1 -21 27 -34 63 -28 76 -28 73 -11 64 9 -6 9 -4 -1 8 -20 25 -24 52 -29
196 -5 132 3 172 30 155 6 -3 7 -1 3 6 -4 6 -12 9 -17 6 -5 -4 -9 3 -9 15 0
14 4 19 13 14 9 -5 9 -4 1 5 -8 9 -8 28 1 72 7 32 10 59 6 58 -3 0 -28 -14
-56 -31z"/>
<path d="M1570 2060 c0 -5 5 -10 11 -10 5 0 7 5 4 10 -3 6 -8 10 -11 10 -2 0
-4 -4 -4 -10z"/>
<path d="M1613 1749 c-2 -23 3 -25 10 -4 4 8 3 16 -1 19 -4 3 -9 -4 -9 -15z"/>
<path d="M2010 1263 c0 -6 8 -17 18 -24 16 -13 16 -13 2 6 -8 11 -16 22 -17
24 -2 2 -3 0 -3 -6z"/>
<path d="M1295 1249 c-4 -6 -5 -12 -2 -15 2 -3 7 2 10 11 7 17 1 20 -8 4z"/>
<path d="M1226 1202 c-3 -5 1 -9 9 -9 8 0 15 4 15 9 0 4 -4 8 -9 8 -6 0 -12
-4 -15 -8z"/>
<path d="M1216 1158 c3 -5 10 -6 15 -3 13 9 11 12 -6 12 -8 0 -12 -4 -9 -9z"/>
<path d="M1140 1125 c0 -7 30 -13 34 -7 3 4 -4 9 -15 9 -10 1 -19 0 -19 -2z"/>
<path d="M1033 915 c0 -8 4 -12 9 -9 4 3 8 9 8 15 0 5 -4 9 -8 9 -5 0 -9 -7
-9 -15z"/>
<path d="M1016 835 c-9 -26 -7 -32 5 -12 6 10 9 21 6 23 -2 3 -7 -2 -11 -11z"/>
<path d="M1799 593 c-13 -16 -12 -17 4 -4 16 13 21 21 13 21 -2 0 -10 -8 -17
-17z"/>
</g>
</svg>
